<svg width="512" height="512" viewBox="0 0 135.467 135.467" xmlns="http://www.w3.org/2000/svg"><style>path{fill:#000}@media (prefers-color-scheme:dark){path{fill:#fff}}</style><path d="M38.196 101.489q-2.53 1.934-5.655 3.572-3.126 1.637-6.549 2.232-3.274.446-6.548-.298t-6.102-3.423q-3.572-3.274-4.911-7.59-1.19-4.316-.893-9.078.297-4.763 1.786-9.674 1.637-4.911 3.87-9.525 2.38-4.763 5.06-8.93 2.678-4.167 5.06-7.441 1.636-2.232 3.274-4.316 1.786-2.232 3.423-4.167 1.637-1.488 3.125-2.084 1.488-.744 2.381-.595.893.149 1.042 1.042.149.744-.744 1.934-2.381 2.828-4.316 5.21-1.935 2.232-3.572 4.464-1.488 1.935-3.72 5.358-2.233 3.423-4.614 7.59-2.382 4.167-4.316 8.93-1.786 4.613-2.53 9.227-.744 4.614.148 8.632 1.042 4.018 4.614 6.995 4.316 3.72 9.525 2.828 5.209-.893 9.525-4.316 3.87-3.126 7.59-7.442 3.72-4.465 6.846-9.078 3.274-4.614 5.953-8.93 2.68-4.316 4.316-7.144.596-1.19 1.34-1.19.744 0 1.042.744.297.744.148 2.084-.148 1.19-1.041 2.38-1.489 2.382-4.019 6.4-2.381 4.019-5.506 8.632-3.126 4.465-6.995 9.079-3.72 4.465-8.037 7.888zm-3.87-70.544q-.446-.745-.297-1.637.149-1.042 1.042-1.34 1.042-.446 2.381-.149 1.34.15 2.53.893 1.19.744 2.232 1.786 1.042 1.042 1.489 1.935.297.744.149 1.637 0 .893-.893 1.34-1.042.446-2.382.148-1.34-.297-2.679-1.042-1.19-.744-2.232-1.637-.893-1.041-1.34-1.934z"/><path d="M71.831 107.74q-5.953-.15-9.674-2.977-3.72-2.828-5.506-7.144-1.637-4.316-1.637-9.674 0-5.506 1.19-11.013 1.34-5.506 3.572-10.567 2.381-5.208 5.358-8.93 4.465-5.952 10.418-10.566 6.102-4.614 14.585-6.548 1.637-.298 1.637 1.042.149 1.339-2.084 1.785-6.846 1.489-12.055 5.954-5.209 4.464-9.376 10.715-1.786 2.53-3.274 6.846-1.488 4.167-2.53 8.93-.893 4.762-1.042 9.674-.149 4.762.893 8.78 1.042 4.019 3.423 6.698 2.381 2.53 6.549 2.678 5.655.298 10.417-2.38 4.912-2.68 8.632-7.145 3.87-4.464 6.4-9.97 2.53-5.656 3.572-11.014-4.614-1.34-8.037-5.06-3.274-3.72-4.762-7.74-1.34-4.166-.744-7.887.744-3.87 4.167-5.507 4.167-1.934 7.143 0 3.126 1.935 4.912 5.953 1.934 4.019 2.53 8.93.744 4.911.149 8.93 3.72.744 6.846.297 3.125-.446 5.506-1.34 2.53-.892 4.167-1.934 1.786-1.19 2.828-1.935.595-.446 1.042-.297.595.149.744.595.298.446.149 1.042-.149.446-.744.744-3.126 2.53-6.4 3.87-3.274 1.339-6.25 1.934-2.828.447-5.06.298-2.233-.149-2.977-.447-1.637 6.102-4.316 12.353-2.68 6.102-6.995 11.162-4.167 5.06-9.972 8.186-5.804 2.976-13.394 2.678zm23.217-55.81q-2.381.892-2.828 3.422-.446 2.381.596 5.21 1.041 2.678 3.274 5.06 2.381 2.38 5.358 2.976.148-2.977-.15-6.102-.148-3.274-.892-5.804-.744-2.68-2.084-4.019-1.34-1.34-3.274-.744z"/></svg>